# xmcd CD database file
# Copyright (C) 1993-1998 Ti Kan
#
# Track frame offsets:
# 150
# 15330
# 30185
# 43237
# 57457
# 71142
# 83730
# 94262
# 108830
# 122177
# 135707
# 150655
# 163600
# 176102
# 189345
# 201842
# 215515
# 227995
# 242132
# 255252
# 270000
# 283535
# 298175
# 311697
#
# Disc length: 4340 seconds
#
# Revision: 0
# Processed by: cddbd v1.4b41PL1 Copyright (c) Steve Scherf et al.
# Submitted via: inCDius 1.1
#
DISCID=5310f218
DTITLE=Jimmie Rodgers - Memorial Album - 24 Classics
DYEAR=1900
DGENRE=
TTITLE0=Blue Yodel (T for Texas)
TTITLE1=Away Out on the Mountain
TTITLE2=Frankie and Johnny
TTITLE3=The Brakeman's Blues-Yodeling the Blues Away
TTITLE4=My Old Pal
TTITLE5=Desert Blues
TTITLE6=I'm Sorry We Met 
TTITLE7=Blue Yodel No. 3 (evening Sun Yodel)
TTITLE8=My Caroline Sunshine Girl
TTITLE9=Sleep Baby Sleep
TTITLE10=Blue Yodel No. 2 (My Lovin' Gal, Lucille)
TTITLE11=Tuck Away My Lonesome Blues
TTITLE12=Never No Mo' Blues
TTITLE13=Daddy and Home
TTITLE14=Waiting for A Train
TTITLE15=Blue Yodel No. 4 (California Blues)
TTITLE16=Dear Old Sunny South By The Sea
TTITLE17=Blue Yodel No. 6
TTITLE18=Pistol Packin' Papa
TTITLE19=Jimmie's Mean Mama Blues
TTITLE20=You and My Old Guitar
TTITLE21=Prairie Lullaby
TTITLE22=Old Pal Of My Heart
TTITLE23=My Little Lady
EXTD=A compilation of 24 of thebest known Rodgers tunes\n from the 20's and 30
EXTD='s\t 
EXTT0=
EXTT1=
EXTT2=
EXTT3=
EXTT4=
EXTT5=
EXTT6=
EXTT7=
EXTT8=
EXTT9=
EXTT10=
EXTT11=
EXTT12=
EXTT13=
EXTT14=
EXTT15=
EXTT16=
EXTT17=
EXTT18=
EXTT19=
EXTT20=
EXTT21=
EXTT22=
EXTT23=
PLAYORDER=
